<svg xmlns="http://www.w3.org/2000/svg" width="280.341" height="50" viewBox="0 0 280.341 50">
  <g id="logonew3" transform="translate(-925 -661)">
    <g id="Path_27" data-name="Path 27" transform="translate(925 661)" fill="#fff">
      <path d="M 279.341064453125 49 L 0.9999964833259583 49 L 0.9999964833259583 1 L 279.341064453125 1 L 279.341064453125 49 Z" stroke="none"/>
      <path d="M 2 2 L 2 48 L 278.341064453125 48 L 278.341064453125 2 L 2 2 M 0 0 L 280.341064453125 0 L 280.341064453125 50 L 0 50 L 0 0 Z" stroke="none" fill="#303030"/>
    </g>
    <path id="Path_28" data-name="Path 28" d="M0,0H93.967V46.174H0Z" transform="translate(926.752 662.913)" fill="#0e77d0"/>
    <path id="Path_29" data-name="Path 29" d="M.64-11.7H4.36V0h2.8V-11.7h3.72v-2.26H.64ZM14.94,0h3.04L20-7.74,22.02,0h3.02l3.24-11.08H25.6L23.64-2.66l-2.08-8.42H18.6L16.48-2.64l-1.96-8.44H11.68ZM29.8,0h2.8V-11.08H29.8Zm1.42-12.4a1.654,1.654,0,0,0,1.72-1.64,1.654,1.654,0,0,0-1.72-1.64,1.642,1.642,0,0,0-1.72,1.64A1.642,1.642,0,0,0,31.22-12.4ZM35.8-3.44C35.8-.9,37.22,0,39.34,0H41.1V-2.36H39.8c-.88,0-1.18-.32-1.18-1.06V-8.78H41.1v-2.3H38.62v-2.74H35.8v2.74H34.48v2.3H35.8Zm7.76,0C43.56-.9,44.98,0,47.1,0h1.76V-2.36h-1.3c-.88,0-1.18-.32-1.18-1.06V-8.78h2.48v-2.3H46.38v-2.74H43.56v2.74H42.24v2.3h1.32ZM55.64-8.96a2.462,2.462,0,0,1,2.64,2.38H53.02A2.573,2.573,0,0,1,55.64-8.96ZM60.9-3.48H57.88a2.283,2.283,0,0,1-2.22,1.34A2.592,2.592,0,0,1,53-4.7h8.1a6.545,6.545,0,0,0,.08-1.08,5.2,5.2,0,0,0-5.46-5.48,5.324,5.324,0,0,0-5.56,5.72A5.366,5.366,0,0,0,55.72.18,5.15,5.15,0,0,0,60.9-3.48Zm5.12-2.04c0-2.14,1-2.78,2.66-2.78h.74v-2.94a3.843,3.843,0,0,0-3.4,1.88v-1.72h-2.8V0h2.8Z" transform="translate(937 692)" fill="#fff"/>
    <path id="Path_30" data-name="Path 30" d="M14.42-14.04,9.44,0H5.16L.18-14.04H3.82L7.3-3.44l3.5-10.6ZM15.98,0h2.8V-11.08h-2.8ZM17.4-12.4a1.654,1.654,0,0,0,1.72-1.64,1.654,1.654,0,0,0-1.72-1.64,1.642,1.642,0,0,0-1.72,1.64A1.642,1.642,0,0,0,17.4-12.4Zm3.42,6.82c0,3.46,2.24,5.76,5.06,5.76a4.188,4.188,0,0,0,3.64-1.82V0h2.84V-14.8H29.52v5.26a4.547,4.547,0,0,0-3.62-1.72C23.06-11.26,20.82-9.04,20.82-5.58Zm8.72.04A2.983,2.983,0,0,1,26.6-2.28a3.028,3.028,0,0,1-2.92-3.3A2.955,2.955,0,0,1,26.6-8.8,2.983,2.983,0,0,1,29.54-5.54ZM39.86-8.96A2.462,2.462,0,0,1,42.5-6.58H37.24A2.573,2.573,0,0,1,39.86-8.96Zm5.26,5.48H42.1a2.283,2.283,0,0,1-2.22,1.34A2.592,2.592,0,0,1,37.22-4.7h8.1a6.544,6.544,0,0,0,.08-1.08,5.2,5.2,0,0,0-5.46-5.48,5.324,5.324,0,0,0-5.56,5.72A5.366,5.366,0,0,0,39.94.18,5.15,5.15,0,0,0,45.12-3.48ZM58.14-5.54a5.475,5.475,0,0,0-5.7-5.72,5.475,5.475,0,0,0-5.7,5.72A5.423,5.423,0,0,0,52.36.18,5.54,5.54,0,0,0,58.14-5.54Zm-8.56,0c0-2.22,1.34-3.28,2.82-3.28s2.86,1.06,2.86,3.28a2.949,2.949,0,0,1-2.9,3.28C50.86-2.26,49.58-3.34,49.58-5.54Zm15.74-8.5a8.166,8.166,0,0,1,3.88.88,6.287,6.287,0,0,1,2.57,2.47,7.257,7.257,0,0,1,.91,3.67,7.272,7.272,0,0,1-.91,3.66A6.254,6.254,0,0,1,69.19-.88,8.182,8.182,0,0,1,65.32,0H60.06V-14.04ZM65.1-2.96a4.128,4.128,0,0,0,3.02-1.06,4.013,4.013,0,0,0,1.08-3,4.083,4.083,0,0,0-1.08-3.02,4.083,4.083,0,0,0-3.02-1.08H63.48v8.16ZM85.44-5.54a5.475,5.475,0,0,0-5.7-5.72,5.475,5.475,0,0,0-5.7,5.72A5.423,5.423,0,0,0,79.66.18,5.54,5.54,0,0,0,85.44-5.54Zm-8.56,0c0-2.22,1.34-3.28,2.82-3.28s2.86,1.06,2.86,3.28a2.949,2.949,0,0,1-2.9,3.28C78.16-2.26,76.88-3.34,76.88-5.54ZM89.52,0h3.04l2.02-7.74L96.6,0h3.02l3.24-11.08h-2.68L98.22-2.66l-2.08-8.42H93.18L91.06-2.64,89.1-11.08H86.26Zm22.62,0h2.8V-6.5c0-3.06-1.84-4.74-4.42-4.74a4.139,4.139,0,0,0-3.34,1.54v-1.38h-2.8V0h2.8V-6.12c0-1.78.98-2.74,2.5-2.74,1.48,0,2.46.96,2.46,2.74Zm5.46,0h2.8V-14.8h-2.8Zm16.26-5.54a5.475,5.475,0,0,0-5.7-5.72,5.475,5.475,0,0,0-5.7,5.72A5.423,5.423,0,0,0,128.08.18,5.54,5.54,0,0,0,133.86-5.54Zm-8.56,0c0-2.22,1.34-3.28,2.82-3.28s2.86,1.06,2.86,3.28a2.949,2.949,0,0,1-2.9,3.28C126.58-2.26,125.3-3.34,125.3-5.54Zm9.9-.04c0,3.46,2.24,5.76,5.04,5.76a4.37,4.37,0,0,0,3.68-1.8V0h2.82V-11.08h-2.82V-9.5a4.382,4.382,0,0,0-3.66-1.76C137.44-11.26,135.2-9.04,135.2-5.58Zm8.72.04a2.983,2.983,0,0,1-2.94,3.26,3.028,3.028,0,0,1-2.92-3.3,2.955,2.955,0,0,1,2.92-3.22A2.983,2.983,0,0,1,143.92-5.54Zm4.84-.04c0,3.46,2.24,5.76,5.06,5.76a4.188,4.188,0,0,0,3.64-1.82V0h2.84V-14.8h-2.84v5.26a4.547,4.547,0,0,0-3.62-1.72C151-11.26,148.76-9.04,148.76-5.58Zm8.72.04a2.983,2.983,0,0,1-2.94,3.26,3.028,3.028,0,0,1-2.92-3.3,2.955,2.955,0,0,1,2.92-3.22A2.983,2.983,0,0,1,157.48-5.54Z" transform="translate(1030.341 693)" fill="#303030"/>
  </g>
</svg>
