<?xml version="1.0" standalone="no"?>
<!DOCTYPE svg PUBLIC "-//W3C//DTD SVG 20010904//EN"
 "http://www.w3.org/TR/2001/REC-SVG-20010904/DTD/svg10.dtd">
<svg version="1.0" xmlns="http://www.w3.org/2000/svg"
 width="512.000000pt" height="512.000000pt" viewBox="0 0 512.000000 512.000000"
 preserveAspectRatio="xMidYMid meet">
<metadata>
Created by potrace 1.14, written by Peter Selinger 2001-2017
</metadata>
<g transform="translate(0.000000,512.000000) scale(0.100000,-0.100000)"
fill="#000000" stroke="none">
<path d="M475 5106 c-124 -30 -250 -109 -333 -209 -52 -61 -115 -190 -131
-265 -16 -75 -16 -4069 0 -4144 16 -75 79 -204 131 -266 83 -98 204 -173 333
-207 52 -13 294 -15 2085 -15 2240 0 2073 -5 2215 65 166 81 297 247 334 423
16 75 16 4069 0 4144 -27 127 -112 263 -222 353 -62 52 -178 108 -255 124 -80
17 -4088 14 -4157 -3z m3084 -686 c193 -25 385 -113 527 -243 l55 -50 57 12
c110 24 303 94 416 150 l114 58 -13 -37 c-40 -114 -126 -240 -232 -340 -45
-43 -101 -89 -123 -101 -42 -24 -53 -40 -22 -34 9 2 59 11 111 20 109 19 235
54 323 90 34 14 63 23 66 20 19 -19 -269 -329 -386 -415 l-61 -45 -1 -120 c-1
-370 -73 -732 -209 -1056 l-31 -75 -73 19 c-110 31 -359 30 -482 -1 -111 -28
-275 -105 -365 -172 -332 -246 -489 -677 -389 -1068 11 -46 19 -85 17 -86 -1
-1 -41 -19 -88 -38 -332 -140 -668 -209 -1019 -209 -524 0 -985 121 -1406 370
-63 38 -67 41 -35 37 100 -14 190 -16 306 -6 358 31 691 153 969 357 l80 58
-72 7 c-327 33 -609 226 -754 517 -15 31 -32 67 -37 81 l-10 25 147 0 c196 0
323 29 216 49 -57 11 -169 60 -248 109 -251 157 -417 432 -441 735 -3 39 -5
72 -3 72 2 0 25 -11 53 -24 100 -48 240 -85 323 -86 l43 0 -70 55 c-134 105
-251 279 -306 453 -70 223 -54 450 47 675 l30 68 41 -48 c324 -386 795 -689
1297 -834 179 -51 444 -98 557 -99 l53 0 -8 58 c-13 93 -8 290 10 364 72 294
262 525 540 653 89 41 177 64 282 74 117 12 113 12 204 1z m412 -2663 c51 -34
58 -67 58 -289 l1 -198 139 0 c139 0 140 0 160 -27 14 -17 19 -34 15 -47 -3
-12 -112 -128 -243 -258 -178 -179 -243 -238 -261 -238 -18 0 -84 60 -267 242
-198 198 -243 247 -243 270 0 49 28 58 182 58 l137 0 3 221 3 221 37 34 38 34
103 0 c92 0 108 -3 138 -23z"/>
<path d="M3582 3869 c-47 -14 -109 -80 -122 -131 -34 -124 54 -243 179 -243
72 0 126 28 166 84 40 57 43 145 6 204 -46 75 -145 112 -229 86z"/>
</g>
</svg>
